<?xml version="1.0" encoding="UTF-8"?>
<svg width="67px" height="10px" viewBox="0 0 67 10" version="1.1" xmlns="http://www.w3.org/2000/svg" xmlns:xlink="http://www.w3.org/1999/xlink">
    <!-- Generator: Sketch 63.1 (92452) - https://sketch.com -->
    <title>stars</title>
    <desc>Created with Sketch.</desc>
    <g id="stars" stroke="none" stroke-width="1" fill="none" fill-rule="evenodd">
        <path d="M5.25368981,0 L6.57337083,3.71022694 L10.5073796,3.81966011 L7.38897855,6.22213964 L8.50064868,10 L5.25368981,7.77458706 L2.00673094,10 L3.11840108,6.22213964 L-1.82853732e-11,3.81966011 L3.9340088,3.71022694 L5.25368981,0 Z M19.3149242,0 L20.6346052,3.71022694 L24.568614,3.81966011 L21.450213,6.22213964 L22.5618831,10 L19.3149242,7.77458706 L16.0679653,10 L17.1796355,6.22213964 L14.0612344,3.81966011 L17.9952432,3.71022694 L19.3149242,0 Z M33.3761586,0 L34.6958396,3.71022694 L38.6298484,3.81966011 L35.5114474,6.22213964 L36.6231175,10 L33.3761586,7.77458706 L30.1291998,10 L31.2408699,6.22213964 L28.1224688,3.81966011 L32.0564776,3.71022694 L33.3761586,0 Z M47.437393,0 L48.757074,3.71022694 L52.6910828,3.81966011 L49.5726818,6.22213964 L50.6843519,10 L47.437393,7.77458706 L44.1904342,10 L45.3021043,6.22213964 L42.1837032,3.81966011 L46.117712,3.71022694 L47.437393,0 Z M61.4986274,0 L61.521,0.065 L61.5008144,0.06586047 L61.5,7.775 L61.4986274,7.77458706 L58.2516686,10 L59.3633387,6.22213964 L56.2449376,3.81966011 L60.1789464,3.71022694 L61.4986274,0 Z" id="Combined-Shape" fill="#FFFFFF"></path>
    </g>
</svg>